<svg width="192" height="127" viewBox="0 0 192 127" fill="none" xmlns="http://www.w3.org/2000/svg">
<path d="M133.412 89.888C134.66 89.888 135.62 90.464 136.292 91.616C137.06 92.768 137.444 94.352 137.444 96.368C137.444 100.112 136.532 103.088 134.708 105.296C130.1 110.864 125.444 115.184 120.74 118.256C116.036 121.232 110.468 122.72 104.036 122.72C97.7964 122.72 92.4684 121.04 88.0524 117.68C83.7324 114.32 79.6044 108.56 75.6684 100.4C72.5004 93.872 70.0044 89.072 68.1804 86C66.3564 82.832 64.5324 80.576 62.7084 79.232C60.9804 77.888 58.8204 77.072 56.2284 76.784C55.8444 78.8 54.7404 85.136 52.9164 95.792C52.1484 100.592 51.6684 103.52 51.4764 104.576C50.5164 110.432 48.5964 114.944 45.7164 118.112C42.8364 121.184 38.4684 122.72 32.6124 122.72C26.1804 122.72 20.4684 120.848 15.4764 117.104C10.5804 113.264 6.78844 107.984 4.10044 101.264C1.41244 94.448 0.068438 86.72 0.068438 78.08C0.068438 61.952 2.85244 48.032 8.42044 36.32C14.0844 24.608 21.9564 15.68 32.0364 9.536C42.2124 3.296 53.9244 0.175998 67.1724 0.175998C76.3884 0.175998 84.1164 1.568 90.3564 4.352C96.5964 7.13599 101.204 10.976 104.18 15.872C107.252 20.768 108.788 26.288 108.788 32.432C108.788 37.808 107.492 43.088 104.9 48.272C102.404 53.36 98.6124 57.872 93.5244 61.808C88.4364 65.744 82.2444 68.672 74.9484 70.592C79.5564 71.84 83.1084 73.856 85.6044 76.64C88.1004 79.424 90.5964 83.504 93.0924 88.88C95.7804 94.64 98.4204 98.864 101.012 101.552C103.7 104.24 106.772 105.584 110.228 105.584C113.3 105.584 116.228 104.576 119.012 102.56C121.796 100.448 125.3 96.896 129.524 91.904C130.676 90.56 131.972 89.888 133.412 89.888ZM36.3564 76.64C33.0924 76.64 30.8364 75.872 29.5884 74.336C28.4364 72.8 27.8604 71.072 27.8604 69.152C27.8604 66.848 28.5804 65.024 30.0204 63.68C31.5564 62.336 33.2844 61.664 35.2044 61.664H38.8044C40.3404 52.256 41.7804 44.144 43.1244 37.328C44.3724 31.088 48.4044 27.968 55.2204 27.968C60.6924 27.968 63.4284 30.416 63.4284 35.312C63.4284 36.368 63.3804 37.184 63.2844 37.76L58.9644 61.664C64.1484 61.376 68.8524 60.128 73.0764 57.92C77.3964 55.712 80.8044 52.64 83.3004 48.704C85.8924 44.768 87.1884 40.304 87.1884 35.312C87.1884 29.264 85.1244 24.512 80.9964 21.056C76.8684 17.6 70.8204 15.872 62.8524 15.872C53.4444 15.872 45.1884 18.224 38.0844 22.928C31.0764 27.536 25.6044 34.448 21.6684 43.664C17.7324 52.784 15.7644 63.92 15.7644 77.072C15.7644 83.216 16.3884 88.496 17.6364 92.912C18.8844 97.328 20.4204 100.64 22.2444 102.848C24.0684 105.056 25.7964 106.16 27.4284 106.16C28.6764 106.16 29.6844 105.536 30.4524 104.288C31.3164 103.04 31.9884 101.024 32.4684 98.24L36.3564 76.64Z" fill="white"/>
<rect x="137" y="50" width="50" height="71.9388" rx="3" stroke="white" stroke-width="9"/>
<path d="M147.969 70.6624H176.796" stroke="white" stroke-width="4" stroke-linecap="round"/>
<path d="M148.225 86.2244H177.051" stroke="white" stroke-width="4" stroke-linecap="round"/>
<path d="M148.225 100.509H164.041" stroke="white" stroke-width="4" stroke-linecap="round"/>
</svg>
